<?xml version="1.0" standalone="no"?><!DOCTYPE svg PUBLIC "-//W3C//DTD SVG 1.1//EN" "http://www.w3.org/Graphics/SVG/1.1/DTD/svg11.dtd"><svg t="1586680243208" class="icon" viewBox="0 0 2910 1024" version="1.1" xmlns="http://www.w3.org/2000/svg" p-id="1183" xmlns:xlink="http://www.w3.org/1999/xlink" width="568.359375" height="200"><defs><style type="text/css"></style></defs><path d="M0 431.163721h2005.412656v274.400614H0z" fill="#A1B7FE" p-id="1184"></path><path d="M1816.462675 387.586104l-203.148302-0.541461V184.919101a202.907653 202.907653 0 0 1 203.148302 202.667003z m-1627.953885 0C188.50879 224.606217 320.98635 92.369307 484.407427 92.369307v294.294307z m356.22145-86.232744v-78.993205c19.853585-22.059539 19.853585-22.059539 42.354315-48.530986l95.7384-112.062459C704.000113 37.501217 712.382738 26.471447 723.953969 9.265006h90.444111a636.618248 636.618248 0 0 0-3.529527 73.237671v143.387005h12.794533a311.260098 311.260098 0 0 0 43.677888-3.529527v80.216507a350.064833 350.064833 0 0 0-43.236697-2.647145h-13.235724v22.059539c0 24.706684 0.882382 37.501217 3.529527 54.266466h-90.985573a385.440312 385.440312 0 0 0 3.529527-55.148848v-21.538131h-124.856992c-28.677401 0-41.030743 0.441191-57.354802 1.764763z m182.652984-74.561243V175.593932c0-19.853585 0.882382-44.119078 2.647145-63.531473-8.823816 12.353342-15.441677 21.177158-27.353829 36.097428l-64.413854 78.53196z m319.863319 157.50511c-43.236697 0-79.855532-14.037889-106.76817-41.030743a138.934989 138.934989 0 0 1-32.206927-48.972177 292.790248 292.790248 0 0 1-17.206441-101.032689c0-46.325032 11.02977-94.414828 27.79502-122.209848C945.772663 26.070365 991.656504 1.323572 1047.246543 1.323572c42.795506 0 80.216506 14.559296 107.209361 41.030743a138.934989 138.934989 0 0 1 32.206927 48.972177 293.472088 293.472088 0 0 1 17.20644 101.473881c0 46.325032-11.02977 94.856019-27.795019 122.651038-26.471447 44.119078-72.796479 68.825762-128.827709 68.825762z m0-308.392358c-41.471934 0-65.737427 41.913125-65.737427 113.827222 0 78.97315 22.50073 119.562703 66.178618 119.562703 43.236697 0 65.296236-39.707171 65.296236-118.319347 0.020054-75.383462-22.941921-115.090632-65.737427-115.090632z m186.182511 204.712524l93.532446-16.324059c2.647145 14.559296 5.294289 20.735967 12.353342 28.23621 11.912151 12.353342 29.559783 18.971204 50.73694 18.971204 34.412881 0 56.03123-17.206441 56.03123-44.119079 0-18.048714-8.823816-32.206927-23.824302-37.942407-10.147388-3.529526-23.824302-5.73548-41.030743-5.73548s-37.060026 0.882382-54.266467 2.647144V150.405949A387.56605 387.56605 0 0 0 1373.707669 153.093202c41.913125 0 62.649091-14.037889 62.649092-42.354315 0-23.824302-16.76525-37.501217-45.883842-37.501217-31.324546 0-47.207414 12.353342-53.825276 40.589552L1241.350434 100.150308c8.382625-27.353829 15.441677-40.589552 29.559782-56.03123 26.912638-29.118592 67.50219-44.119078 121.327466-44.119078 48.129904 0 87.796966 13.235724 112.944841 37.501217 16.324059 16.324059 24.706684 37.501217 24.706684 62.649091 0 46.766223-25.147875 75.884815-75.884815 87.796966 26.912638 4.010825 41.471934 10.147388 56.913611 23.383112A86.89453 86.89453 0 0 1 1540.15692 276.626622c0 22.50073-6.176671 43.236697-17.647632 58.678374a110.518291 110.518291 0 0 1-41.471933 33.089309c-22.941921 10.588579-58.678374 17.206441-91.767684 17.20644-39.707171 0-79.414341-9.265006-102.797452-24.706683-20.294776-13.235724-35.736454-32.648118-45.442651-56.913612a163.962539 163.962539 0 0 1-7.600514-23.383111z" fill="#A1B7FE" p-id="1185"></path><path d="M1112.723266 519.401878h406.055955a4.010825 4.010825 0 0 1 2.907848 6.778295L1409.805097 643.737462H992.679265l117.136153-123.092228a4.010825 4.010825 0 0 1 2.907848-1.243356z m-126.340997 68.344463l1.644438 1.724655a4.010825 4.010825 0 0 1 0 5.554993l-59.661026 62.167792a4.010825 4.010825 0 0 1-2.887794 1.243356h-5.254182a2.988065 2.988065 0 0 1-2.165845-5.033586L980.646789 587.746341a4.010825 4.010825 0 0 1 5.675317-0.140379z m558.848345-0.92249l1.644438 1.724655a4.010825 4.010825 0 0 1 0 5.554993l-59.661026 62.167793a4.010825 4.010825 0 0 1-2.887795 1.243355h-5.254181a2.988065 2.988065 0 0 1-2.165846-5.033585l62.508713-65.637157a4.010825 4.010825 0 0 1 5.675318-0.140378z" fill="#0E1D80" fill-opacity=".1" p-id="1186"></path><path d="M993.381159 609.866043m4.010825 0l407.580068 0q4.010825 0 4.010826 4.010825l0 23.202624q0 4.010825-4.010826 4.010826l-407.580068 0q-4.010825 0-4.010825-4.010826l0-23.202624q0-4.010825 4.010825-4.010825Z" fill="#5266D4" p-id="1187"></path><path d="M1028.977234 580.366423h346.655631l33.329959 31.224275H993.381159l35.596075-31.224275z" fill="#0E1D80" p-id="1188"></path><path d="M1375.492486 284.227136a4.010825 4.010825 0 0 1 0.441191 1.824925V607.640035a4.010825 4.010825 0 0 1-4.010825 4.010825H1032.16584a4.010825 4.010825 0 0 1-4.010826-4.010825V286.072115a4.010825 4.010825 0 0 1 0.441191-1.824925 2.326279 2.326279 0 0 1-0.441191-1.303518c0-10.027063 77.850119-18.209147 173.889332-18.209147s173.889331 8.16203 173.889331 18.209147a2.326279 2.326279 0 0 1-0.441191 1.283464z" fill="#5266D4" p-id="1189"></path><path d="M1200.299637 599.457951V290.784835h-159.971768v308.673116z m3.469364 0H1363.680606V290.784835h-159.911605z m-163.441132-312.202642H1363.680606a3.469364 3.469364 0 0 1 3.469364 3.469364v308.733278a3.469364 3.469364 0 0 1-3.469364 3.469364H1040.327869a3.469364 3.469364 0 0 1-3.469364-3.469364V290.784835a3.469364 3.469364 0 0 1 3.469364-3.529526z" fill="#BBCBFF" fill-opacity=".6" p-id="1190"></path><path d="M1068.142943 318.479584h100.852202v253.223456h-100.852202z" fill="#BBCBFF" p-id="1191"></path><path d="M1115.009437 363.581314v-45.10173h6.958782v45.10173h46.94671v6.938728h-46.866494v45.101731h46.94671v6.938728h-46.94671v45.10173h46.94671v6.938728h-46.94671v45.101731h46.94671v6.938728h-46.94671v45.10173H1115.009437v-45.141839h-46.866494v-6.938728H1115.009437v-45.081676h-46.866494v-6.938728H1115.009437V422.540447h-46.866494v-6.938728H1115.009437v-45.081677h-46.866494v-6.938728z" fill="#5266D4" p-id="1192"></path><path d="M1235.073492 318.479584h100.852203v253.223456h-100.852203z" fill="#BBCBFF" p-id="1193"></path><path d="M1282.020203 363.581314v-45.10173h6.958781v45.10173h46.946711v6.938728h-46.946711v45.101731h46.946711v6.938728h-46.946711v45.10173h46.946711v6.938728h-46.946711v45.101731h46.946711v6.938728h-46.946711v45.10173h-6.958781v-45.141839h-46.946711v-6.938728h46.946711v-45.081676h-46.946711v-6.938728h46.946711V422.540447h-46.946711v-6.938728h46.946711v-45.081677h-46.946711v-6.938728z" fill="#5266D4" p-id="1194"></path><path d="M1189.871491 427.754519a3.469364 3.469364 0 0 1 3.469364 3.469364v26.070365a3.469364 3.469364 0 0 1-3.469364 3.469364 3.469364 3.469364 0 0 1-3.469364-3.469364V431.163721a3.469364 3.469364 0 0 1 3.469364-3.409202z" fill="#FAFAFA" p-id="1195"></path><path d="M1189.871491 432.948538a1.744709 1.744709 0 0 1 1.744709 1.744709v19.071475a1.744709 1.744709 0 0 1-1.744709 1.744709 1.744709 1.744709 0 0 1-1.744709-1.744709v-19.071475a1.744709 1.744709 0 0 1 1.744709-1.744709z" fill="#D3D3D3" p-id="1196"></path><path d="M1174.209218 445.101339m2.607037 0l12.172854 0q2.607036 0 2.607037 2.607036l0 0q0 2.607036-2.607037 2.607037l-12.172854 0q-2.607036 0-2.607037-2.607037l0 0q0-2.607036 2.607037-2.607036Z" fill="#5266D4" p-id="1197"></path><path d="M1214.217201 427.754519a3.469364 3.469364 0 0 0-3.469364 3.469364v26.070365a3.469364 3.469364 0 0 0 3.469364 3.469364 3.469364 3.469364 0 0 0 3.469364-3.529526v-26.070365a3.469364 3.469364 0 0 0-3.469364-3.409202z" fill="#FAFAFA" p-id="1198"></path><path d="M1214.217201 432.948538a1.744709 1.744709 0 0 0-1.744709 1.744709v19.071475a1.744709 1.744709 0 0 0 1.744709 1.744709 1.744709 1.744709 0 0 0 1.744709-1.744709v-19.071475a1.744709 1.744709 0 0 0-1.744709-1.744709z" fill="#D3D3D3" p-id="1199"></path><path d="M1212.472492 445.101339m2.607036 0l12.172855 0q2.607036 0 2.607036 2.607036l0 0q0 2.607036-2.607036 2.607037l-12.172855 0q-2.607036 0-2.607036-2.607037l0 0q0-2.607036 2.607036-2.607036Z" fill="#5266D4" p-id="1200"></path><path d="M1478.510535 478.050269h3.469363v20.816183h-3.469363z" fill="#D8D8D8" p-id="1201"></path><path d="M1474.299168 489.461067m4.010825 0l3.890501 0q4.010825 0 4.010825 4.010825l0 159.951714q0 4.010825-4.010825 4.010825l-3.890501 0q-4.010825 0-4.010825-4.010825l0-159.951714q0-4.010825 4.010825-4.010825Z" fill="#A1B7FE" p-id="1202"></path><path d="M1473.296462 476.30556a6.958782 6.938728 0 1 0 13.917564 0 6.958782 6.938728 0 1 0-13.917564 0Z" fill="#A1B7FE" p-id="1203"></path><path d="M1469.807044 491.927724h20.876345a3.469364 3.469364 0 0 1 3.469364 3.469364 3.469364 3.469364 0 0 1-3.469364 3.469364h-20.876345a3.469364 3.469364 0 0 1-3.469364-3.469364 3.469364 3.469364 0 0 1 3.469364-3.469364z" fill="#D8D8D8" p-id="1204"></path><path d="M918.599321 478.050269h3.469364v20.816183h-3.469364z" fill="#D8D8D8" p-id="1205"></path><path d="M914.387955 489.461067m4.010825 0l3.8905 0q4.010825 0 4.010826 4.010825l0 159.951714q0 4.010825-4.010826 4.010825l-3.8905 0q-4.010825 0-4.010825-4.010825l0-159.951714q0-4.010825 4.010825-4.010825Z" fill="#A1B7FE" p-id="1206"></path><path d="M913.385248 476.30556a6.958782 6.938728 0 1 0 13.917564 0 6.958782 6.938728 0 1 0-13.917564 0Z" fill="#A1B7FE" p-id="1207"></path><path d="M930.79223 491.927724h-20.8964A3.469364 3.469364 0 0 0 906.44652 495.336926a3.469364 3.469364 0 0 0 3.469364 3.469364h20.876346a3.469364 3.469364 0 0 0 3.469364-3.469364 3.469364 3.469364 0 0 0-3.469364-3.409202z" fill="#D8D8D8" p-id="1208"></path><path d="M949.422514 495.637738a743.867716 743.867716 0 0 0 254.346487 44.259457A746.374482 746.374482 0 0 0 1458.135542 493.933137a4.81299 4.81299 0 0 1 6.457429 4.532233v1.203247a8.021651 8.021651 0 0 1-5.434669 7.600514q-129.750199 44.219349-255.389301 44.700648-125.077587 0.421137-254.246217-42.635073a9.625981 9.625981 0 0 1-6.577753-9.124627 4.853099 4.853099 0 0 1 6.477483-4.572341z" fill="#F49130" p-id="1209"></path><path d="M1164.703562 537.129726q17.808064 1.704601 35.596075 1.7046t35.596074-1.7046a4.010825 4.010825 0 0 1 4.3718 3.609742v9.585873a4.010825 4.010825 0 0 1-3.609743 4.010825q-18.189093 1.784817-36.378185 1.784818t-36.378186-1.784818a4.010825 4.010825 0 0 1-3.609743-4.010825v-9.204844a4.010825 4.010825 0 0 1 4.010826-4.010825zM1423.401795 502.095167l27.915344-8.021651a8.683437 8.683437 0 0 1 10.728958 6.016238 8.663383 8.663383 0 0 1-6.016238 10.708904l-27.935399 8.02165a4.010825 4.010825 0 0 1-4.953369-2.747415l-2.566928-8.964195a4.010825 4.010825 0 0 1 2.747415-4.953369zM1308.83257 528.847371l43.597671-6.878565a4.010825 4.010825 0 0 1 4.592395 3.328985l1.463951 9.204844a4.010825 4.010825 0 0 1-3.328985 4.592395L1311.539877 545.973596a4.010825 4.010825 0 0 1-4.592395-3.328985L1305.523639 533.439766a4.010825 4.010825 0 0 1 3.328985-4.592395zM978.460889 503.699497l-27.915344-8.021651a8.683437 8.683437 0 0 0-4.812991 16.664979l27.935399 8.021651a4.010825 4.010825 0 0 0 4.953369-2.747415l2.566928-8.964195a4.010825 4.010825 0 0 0-2.747415-4.953369z m114.569225 26.070364l-43.597671-6.878565a4.010825 4.010825 0 0 0-4.592395 3.328985l-1.463951 9.204844a4.010825 4.010825 0 0 0 3.328985 4.592395l43.597671 6.878565A4.010825 4.010825 0 0 0 1094.95531 543.46683l1.463951-9.204844a4.010825 4.010825 0 0 0-3.328985-4.592395z" fill="#FFFFFF" fill-opacity=".9" p-id="1210"></path><path d="M533.439766 665.716785a172.966842 39.847549 0 1 0 345.933684 0 172.966842 39.847549 0 1 0-345.933684 0Z" fill="#0E1D80" fill-opacity=".1" p-id="1211"></path><path d="M603.629209 491.646967c-8.021651-2.005413-16.243843-3.810284-25.167928 0-4.3718 1.824926-7.399973 6.016238-9.846577 10.909445-3.228714 19.492611 1.203248 31.866007 9.846577 40.328848 9.605927 3.20866 17.627577 1.584276 25.167928 0z" fill="#F49130" p-id="1212"></path><path d="M609.003715 507.710322l8.663383 21.177158 8.021651 58.537995 6.41732 73.197562h10.769066c3.489418-31.144059 6.557699-63.210607 7.660676-75.202975s0.320866-74.40081-4.010825-77.669632z" fill="#0E1D80" p-id="1213"></path><path d="M588.207586 502.556412h33.931582c3.369093 23.363057-4.3718 72.415451-4.371799 72.415451-3.409202 20.475263-16.42433 85.63112-16.42433 85.63112h-13.135453l3.288877-82.362298z" fill="#0E1D80" p-id="1214"></path><path d="M658.236596 671.23167c-6.557699 2.005413-22.982029 2.005413-28.456806-0.962598-2.647145-3.870446 3.529526-9.686143 2.1859-9.686143h10.949553s20.876346 7.760947 15.321353 10.648741z m-69.507603-11.731664s-5.374506 6.637916-2.947956 10.027063 29.780378 4.492124 29.780378 0.92249-13.797239-10.909445-13.797239-10.909445z" fill="#F49130" p-id="1215"></path><path d="M593.602146 437.179959s-12.032476 26.070365-12.032476 37.060026 20.796129 15.26119 20.796129 15.26119l3.288877-50.135316z" fill="#7589F2" p-id="1216"></path><path d="M644.740169 366.469109a23.583653 23.583653 0 0 1 6.136563 7.119215c2.005413 4.010825 4.010825 20.374993 4.010825 20.374992h-4.010825s-2.005413 10.187496-6.136563 13.235724c-5.113802 1.02276-17.386928-1.02276-17.386928-1.022761l-10.227604 3.048228v-45.743463z" fill="#FFE4A8" p-id="1217"></path><path d="M613.375515 412.172463a47.267576 47.267576 0 0 1 22.982029 6.016238c9.846576 11.611339 17.507252 112.644029 13.135453 116.53453s-54.707657 0-60.16238-3.870447S591.496463 443.196197 603.629209 421.136658c5.374506-7.68073 9.746306-8.964195 9.746306-8.964195z" fill="#5266D4" p-id="1218"></path><path d="M678.591534 475.38307l0.862328 9.826522 27.253558-2.346333-0.320866-4.913261-27.79502-2.566928z" fill="#FFE4A8" p-id="1219"></path><path d="M702.070209 480.406408a5.434668 7.620568 85.08 1 0 15.184979-1.307152 5.434668 7.620568 85.08 1 0-15.184979 1.307152Z" fill="#FFE4A8" p-id="1220"></path><path d="M631.985744 418.629892c-15.321353 4.351745-6.557699 26.070365-3.288876 31.605303s16.42433 30.522381 25.167928 33.791204 26.270906 2.1859 26.270906 2.185899V475.282799s-12.032476-4.351745-16.424329-7.620568-16.404276-53.384085-31.725629-49.032339z" fill="#7589F2" p-id="1221"></path><path d="M616.12293 412.312842l15.341407 3.048227 1.002706-8.141975-14.298592-4.070988-2.045521 9.164736z" fill="#FFE4A8" p-id="1222"></path><path d="M596.73059 446.384803a2.52682 2.52682 0 0 1 1.784817 3.068281l-13.757131 50.736941a2.546874 2.546874 0 0 1-3.108389 1.804871 2.52682 2.52682 0 0 1-1.784818-3.068281l13.757131-50.736941a2.546874 2.546874 0 0 1 3.10839-1.804871z" fill="#F49130" p-id="1223"></path><path d="M609.003715 453.504018c6.557699-2.1859 12.032476-12.032476 12.032476-12.032476s5.474777-16.344113 9.846576-19.612936 6.557699-2.1859 6.5577-2.1859l-5.474777-5.454722s-13.396157-0.401083-15.321352-5.454722c0 0-19.693152 12.032476-22.98203 22.881758-2.1859 7.620568-1.102977 15.26119 3.288877 19.612936s5.494831 4.431962 12.05253 2.246062z m24.486089-100.270633c-7.159323 0-19.432449 4.010825-23.523491 13.235724s0 28.516968 4.010826 32.587955 8.182084 2.005413 11.250365-1.02276 6.196725-12.714316 3.068281-19.352232a17.627577 17.627577 0 0 0 9.204844 2.005412c6.136563 0 13.295886 1.02276 18.409688-8.162029s-15.26119-19.29207-22.420513-19.29207z" fill="#0E1D80" p-id="1224"></path><path d="M633.409587 382.392085c0 4.452016 0.280758 6.89862-2.185899 7.379919s-2.647145-0.160433-4.772883-2.566928-4.271529-10.027063 2.1859-10.428146c2.52682-0.160433 4.692666 1.183193 4.772882 5.615155zM783.133696 527.644124s-16.043301 52.902786-15.020541 60.302758 7.018944 70.891337 7.018945 70.891338l-7.018945 7.399972c3.669905 2.546874 10.568525 1.584276 18.048714 0l-3.008119-10.588578s9.004303-79.354179 8.021651-69.828469S806.175888 523.412703 806.175888 523.412703z" fill="#FFE4A8" p-id="1225"></path><path d="M760.693129 594.20377c4.411908 6.457429 38.10284 49.974883 46.525573 60.964545a5.895913 5.895913 0 0 1 0.862328 5.575047l-1.363681 3.830338a5.695372 5.695372 0 0 1-1.724655 2.466658c-0.862327 0.701894-1.865034 1.664493-1.865034 2.28617s3.44931 0.501353 6.016238 0.280758a5.39456 5.39456 0 0 0 4.391854-3.028173c1.784817-3.569635 4.672611-9.52571 4.672612-11.009716 0-1.102977-2.226008-3.10839-4.351746-4.732774a17.647631 17.647631 0 0 1-5.635209-7.620568l-21.217266-55.028523a5.875859 5.875859 0 0 1-0.220596-0.661786l-16.885574-65.877806A5.454722 5.454722 0 0 0 764.062222 517.396465l-9.224898 1.062869a5.615155 5.615155 0 0 0-4.833045 6.216779c1.684547 16.444384 6.517591 63.451256 10.68885 69.527657z" fill="#FFE4A8" p-id="1226"></path><path d="M818.208364 653.764526c2.005413-0.661786 4.010825 4.3718 4.010825 5.454722s-5.715426 11.310527-7.059053 12.032476a36.598781 36.598781 0 0 1-12.032476 0c-2.145792-0.762057-0.220595-5.454722 4.010826-5.454722h6.016238s3.20866-6.838457 5.05364-12.032476z m-48.129904 10.869336c-5.575047 0.461245-8.723545 3.870446-7.760947 5.795643s9.265006 1.283464 13.556589 0.962598c4.853099-0.962598 7.760947-0.962598 9.686144-2.907848 0.962598-2.907848 0.962598-5.534939-0.962599-6.758241 0 0-5.815697 4.833045-8.723545 4.833045a12.313234 12.313234 0 0 1-5.795642-1.885088z" fill="#5266D4" p-id="1227"></path><path d="M746.013508 530.271214s8.021651 60.16238 11.02977 61.225249 16.043301-7.379919 23.062245-8.442787 10.027063 4.231421 14.037889 3.168552 12.032476-62.288117 12.032476-62.288118L775.091991 513.38564z" fill="#0E1D80" p-id="1228"></path><path d="M798.154237 415.12042h-12.172855l-16.223788 15.862814 8.02165-15.862814s-13.175561 7.399973-19.272015 15.862814-7.099161 7.399973-9.124628 20.054126 7.099161 31.705574 3.048227 46.50552-10.147388 23.262787-8.02165 32.768443c6.016238 5.294289 28.396643-10.568525 44.620431-8.462842s14.198322 6.337104 18.249256 3.168552-7.119215-63.391094-7.119215-50.696832 5.073694-52.862678 5.073694-52.862677z" fill="#5266D4" p-id="1229"></path><path d="M753.032452 439.185372l25.508849 26.070364 3.569635-16.584763 18.048714 4.211367s-11.02977 34.773855-15.040595 36.879539-5.013532 3.168552-13.035183-4.211367S746.013508 439.185372 746.013508 439.185372z" fill="#FFE4A8" p-id="1230"></path><path d="M794.905468 413.51609c-8.141975 4.311637-10.428146 11.270419-14.258483 19.412394-2.647145 7.540352-3.048227 19.412395-2.005413 22.641109s16.304005 8.623274 19.352232 7.540352 12.192909-21.558186 12.192909-33.410175-9.164736-18.329472-15.281245-16.18368z" fill="#7589F2" p-id="1231"></path><path d="M707.910667 418.168647l34.092016-1.042815 22.059539 50.135317h-32.086603l-24.064952-49.092502z" fill="#F49130" p-id="1232"></path><path d="M746.013508 427.152896a4.010825 4.010825 0 0 0 3.288877 2.005412c2.1859 0 6.016238 1.082923 6.577753 3.008119 0.902436 2.787524-2.627091 9.585872-3.288877 9.004303z m-21.498024 26.070364c1.824926-0.561516 12.152801 2.466658 11.430852 4.973424a7.199431 7.199431 0 0 1-6.678024 4.973423c-1.303518 0.080217-7.119215-9.144682-4.752828-9.946847zM777.458378 399.197443v14.92027L768.073047 431.163721l19.813477-17.046008H794.143412l-2.085629-17.046007-14.599405 2.125737z" fill="#FFE4A8" p-id="1233"></path><path d="M775.091991 361.27509s-9.124628 18.309418-9.024356 22.621055c0.100271 4.81299 2.005413 20.455209 6.016237 22.621054s17.046008-2.145792 17.046008-2.145791l23.062246-23.724032L791.135293 356.963453z" fill="#FFE4A8" p-id="1234"></path><path d="M774.309881 366.248513c2.005413 0 1.02276 8.563112 3.068281 11.771773s4.010825 4.271529 7.159323 6.41732a4.853099 4.853099 0 0 1 2.005413 5.354452l7.159323-3.20866c3.20866 5.875859-3.068281 10.688849-3.068281 10.688849s-5.113802 6.41732 0 9.625981c3.068281 1.062869 5.113802-2.145792 5.113802-2.145792s5.113802 3.20866 8.182083 0 4.010825-6.016238 2.005413-11.771772c5.534939 0.140379 9.285061-3.088335 10.207551-11.771772-0.822219-7.038998-2.747415-13.195615-11.230311-13.89751a14.037889 14.037889 0 0 0-8.182084-13.89751 20.334884 20.334884 0 0 0-16.344113 3.208661 11.71161 11.71161 0 0 0-11.230311 0c-3.068281 2.145792-5.113802 9.625981-4.010825 13.897509 0 0-3.068281 1.062869-3.068282 6.417321s3.068281 5.354452 3.068282 5.354452c0.561516 0.34092 3.068281-4.271529 3.068281-4.271529s5.073694-11.771772 6.096455-11.771773z" fill="#0E1D80" p-id="1235"></path><path d="M786.903872 388.58881c-0.982652 3.870446-1.183193 6.958782 0.300812 8.16203s4.532233-1.082923 6.016238-3.770176a6.838457 6.838457 0 0 0-0.300812-7.059053c-1.203248-1.885088-4.411908-0.621678-6.016238 2.667199z" fill="#FFE4A8" p-id="1236"></path></svg>